<svg xmlns="http://www.w3.org/2000/svg" width="18" height="18" fill="none" xmlns:v="https://vecta.io/nano"><path d="M13.079 6.993c0-2.719-2.978-5.05-6.475-5.05S0 4.144 0 6.993c0 1.036.388 2.072 1.165 2.849-.388.907-1.036 1.683-1.036 1.683-.129.13-.129.13-.129.259s.129.13.259.13c1.165 0 2.072-.389 2.719-.777 1.036.518 2.201.777 3.496.777 3.626 0 6.604-2.201 6.604-4.921zm3.755 6.863c.777-.777 1.166-1.813 1.166-2.849 0-2.072-1.683-3.885-4.014-4.662v.647c0 3.237-3.367 5.957-7.511 5.957H5.439c1.036 1.813 3.367 3.108 5.957 3.108 1.295 0 2.46-.259 3.496-.777.648.389 1.683.777 2.719.777.13 0 .13 0 .259-.13v-.259c.13-.13-.648-.906-1.036-1.813z" fill="#1e1e1e"/></svg>