<svg xmlns="http://www.w3.org/2000/svg" viewBox="0 0 90 90" xmlns:v="https://vecta.io/nano"><path d="M41.5 59h7.4c2.5 0 4.4-2.2 4.4-4.8H36.7c0 2.6 2.3 4.8 4.8 4.8zM16.7 42.1c-4.9-.4-5.1 7.1-.2 8 2.5.3 9.1 1.2 9.3-3.2 0-3.6-4-4.1-9.1-4.8zM45 0C20.1 0 0 20.1 0 45s20.1 45 45 45 45-20.1 45-45S69.9 0 45 0zm36.2 35c0 1.5-3.3 2.8-4.2 2.7l-1.5-.3-.6 1c2.5 1.2 4.3 2.7 4.6 4.7v18.5 3.3.1c0 2.2-1.7 4-3.7 4h-3.1c-2 0-3.7-1.8-3.7-4v-.1H21v.1c0 2.2-1.7 4-3.7 4h-3.1c-2 0-3.7-1.8-3.7-4v-.1-3.3V43c.3-2 2.1-3.5 4.6-4.7l-.6-1-1.5.3c-.9.1-4.2-1.2-4.2-2.7 0-2.2 1.9-2.7 4.2-2.7 2 0 4 1.1 4.1 2.5h0l.2.4 4.1-9.5c1.9-4.4 5.9-7.2 10.3-7.2l4.2-.1h-.1c0-1.8 1.5-3.2 3.2-3.2h11.7c1.7 0 3.1 1.3 3.2 3h0v.3l4.2.1c4.4 0 8.4 2.8 10.3 7.2l4.1 9.5.2-.4h0c.1-1.4 2.2-2.5 4.1-2.5 2.6 0 4.4.4 4.4 2.7zm-29.7-.2c2.6 0 11.6.2 18.7 2v-.3L66.1 27c-1.5-3.4-4.5-5.5-7.8-5.5l-11.5-.4h-3.4l-11.5.4c-3.3 0-6.4 2.2-7.8 5.5L20 36.5h0v.3c7.1-1.8 16.1-2 18.7-2h12.8zm12.7 12.1c.2 4.4 6.8 3.4 9.3 3.2 4.8-.8 4.6-8.3-.2-8-4.9.4-9.1 1.4-9.1 4.8z" fill="#009ee2"/><linearGradient id="A" gradientUnits="userSpaceOnUse" x1="22.496" y1="6.022" x2="67.504" y2="83.978"><stop offset="0" stop-color="#39a7df"/><stop offset=".327" stop-color="#38a4dd"/><stop offset=".565" stop-color="#339bd6"/><stop offset=".775" stop-color="#2b8bcb"/><stop offset=".967" stop-color="#1f75ba"/><stop offset="1" stop-color="#1d70b7"/></linearGradient><circle cx="45" cy="45" r="45" fill="url(#A)"/><path d="M21.5 25.7l-4.1 9.5-.2-.4h0c-.2-1.4-2.2-2.5-4.2-2.5-2.3 0-4.2.5-4.2 2.7 0 1.5 3.3 2.8 4.2 2.7l1.5-.3.6 1c-2.5 1.2-4.3 2.7-4.6 4.7v18.5 3.3.1c0 2.2 1.7 4 3.7 4h3.1c2 0 3.7-1.8 3.7-4v-.1h48v.1c0 2.2 1.7 4 3.7 4h3.1c2 0 3.7-1.8 3.7-4v-.1-3.3V43c-.3-2-2.1-3.5-4.6-4.7l.6-1 1.5.3c.9.1 4.2-1.2 4.2-2.7 0-2.2-1.9-2.7-4.2-2.7-2 0-4 1.1-4.1 2.5h0l-.2.4-4.1-9.5c-1.9-4.4-5.9-7.2-10.3-7.2l-4.2-.1V18h0c-.1-1.7-1.5-3-3.2-3H39.2c-1.8 0-3.2 1.5-3.2 3.2h0l-4.2.1c-4.3.2-8.4 3-10.3 7.4zm-5 24.4c-4.8-.8-4.6-8.3.2-8 5.1.6 9.1 1.2 9.1 4.8-.2 4.4-6.8 3.5-9.3 3.2zM48.9 59h-7.4c-2.5 0-4.7-2.2-4.7-4.8h16.6c-.1 2.6-2.1 4.8-4.5 4.8zm24.4-16.9c4.9-.4 5.1 7.1.2 8-2.5.3-9.1 1.2-9.3-3.2 0-3.4 4.2-4.4 9.1-4.8zm-30-21h3.4l11.5.4c3.3 0 6.4 2.2 7.8 5.5l4.1 9.5v.3c-7.1-1.8-16.1-2-18.7-2h-13c-2.6 0-11.6.2-18.7 2v-.3h0L24 27c1.5-3.4 4.5-5.5 7.8-5.5l11.5-.4z" fill="#fff"/></svg>