<svg xmlns="http://www.w3.org/2000/svg" width="18" height="18" fill="none" xmlns:v="https://vecta.io/nano"><g clip-path="url(#A)"><path d="M17.7 15.6L14.25 12c-.15-.15-.3-.15-.6-.15h-.6c.9-1.2 1.5-2.85 1.5-4.5C14.7 3.3 11.4 0 7.35 0S0 3.3 0 7.35s3.3 7.35 7.35 7.35c1.65 0 3.3-.6 4.5-1.5v.6c0 .3.15.45.3.6l3.45 3.45c.3.3.9.3 1.2 0l1.05-1.05c.3-.3.3-.9-.15-1.2zM7.35 11.85c-2.55 0-4.5-1.95-4.5-4.5s1.95-4.5 4.5-4.5 4.5 1.95 4.5 4.5c0 2.4-2.1 4.5-4.5 4.5z" fill="#1e1e1e"/></g><defs><clipPath id="A"><path fill="#fff" d="M0 0h18v18H0z"/></clipPath></defs></svg>