<svg xmlns="http://www.w3.org/2000/svg" viewBox="0 0 18 18" xmlns:v="https://vecta.io/nano"><path d="M15.3 6.3H2.7c-.9 0-.9.7-.9.9v7.2c0 .9.9 1.8 1.8 1.8h10.8c.9 0 1.8-.9 1.8-1.8V7.2c0-.2 0-.9-.9-.9z" opacity=".25"/><path d="M7.5 12.9h-1V7.5a.55.55 0 0 0-.3-.5c-.1 0-.3 0-.5.1L4.3 8c-.2.1-.3.2-.3.4 0 .1 0 .3.1.4.1.2.4.3.7.2l.7-.4V13h-1a.47.47 0 0 0-.5.5.47.47 0 0 0 .5.5h2.9c.4 0 .6-.2.6-.5s-.2-.6-.5-.6h0zm6 0h-2.6l2.1-2c.4-.4.7-1 .7-1.7 0-1.3-1-2.3-2.2-2.3h-.1c-.6 0-1.2.3-1.6.7l-.6.6a.76.76 0 0 0-.2.4.76.76 0 0 0 .2.4c.1.1.2.2.4.2A.76.76 0 0 0 10 9l.5-.5c.2-.2.6-.4.9-.4h.1c.6 0 1.2.5 1.2 1.2 0 .3-.1.6-.4.9l-3.1 2.9c-.2.1-.2.3-.2.6a.55.55 0 0 0 .5.3h3.9c.3 0 .5-.2.5-.6s-.1-.5-.4-.5zm2.7-11.1h-.9V.5c0-.4-.3-.5-.4-.5h-1.8c-.2 0-.5.1-.5.5v1.3H5.4V.5C5.4.1 5.1 0 5 0H3.2c-.2 0-.5.1-.5.5v1.3h-.9A1.79 1.79 0 0 0 0 3.6h0v.9 12.6c0 .5.4.9.9.9h16.2c.5 0 .9-.4.9-.9V4.5v-.9h0a1.79 1.79 0 0 0-1.8-1.8zm.4 15.3H1.3c-.2 0-.4-.2-.4-.4V5.4h16.2v11.2a.47.47 0 0 1-.5.5z"/></svg>