<svg xmlns="http://www.w3.org/2000/svg" viewBox="0 0 18 18" xmlns:v="https://vecta.io/nano"><path d="M2.8 12.9H.6a.65.65 0 0 0-.6.6v2.2a.65.65 0 0 0 .6.6h2.2a.65.65 0 0 0 .6-.6v-2.2c-.1-.3-.2-.6-.6-.6zm0-11.2H.6a.65.65 0 0 0-.6.6v2.3a.65.65 0 0 0 .6.6h2.2a.65.65 0 0 0 .6-.6V2.3c-.1-.3-.2-.6-.6-.6zm0 5.7H.6c-.3 0-.6.1-.6.4V10a.65.65 0 0 0 .6.6h2.2a.65.65 0 0 0 .6-.6V7.8c-.1-.3-.2-.4-.6-.4zm14.6 6.1H6.2c-.3 0-.5.1-.5.4v1.2a.65.65 0 0 0 .6.6h11.2c.2 0 .5-.3.5-.6v-1.2c0-.3-.3-.4-.6-.4zm0-11.2H6.2a.65.65 0 0 0-.6.6v1.2a.65.65 0 0 0 .6.6h11.2a.65.65 0 0 0 .6-.6V2.9c0-.5-.3-.6-.6-.6zm0 5.5H6.2a.65.65 0 0 0-.6.6v1.2a.65.65 0 0 0 .6.6h11.2a.65.65 0 0 0 .6-.6V8.4a.65.65 0 0 0-.6-.6z" fill="#1e1e1e"/></svg>