<?xml version="1.0" encoding="utf-8"?>
<svg version="1.1" id="Calque_1" xmlns:v="https://vecta.io/nano"
	 xmlns="http://www.w3.org/2000/svg" xmlns:xlink="http://www.w3.org/1999/xlink" x="0px" y="0px" viewBox="0 0 72.4 54"
	 style="enable-background:new 0 0 72.4 54;" xml:space="preserve">
<style type="text/css">
	.st0{fill:#FFFFFF;}
</style>
<path class="st0" d="M12.7,10.7l-4.1,9.5l-0.2-0.4l0,0c-0.2-1.4-2.2-2.5-4.2-2.5C1.9,17.3,0,17.8,0,20c0,1.5,3.3,2.8,4.2,2.7
	l1.5-0.3l0.6,1c-2.5,1.2-4.3,2.7-4.6,4.7v18.5v3.3V50c0,2.2,1.7,4,3.7,4h3.1c2,0,3.7-1.8,3.7-4v-0.1h48V50c0,2.2,1.7,4,3.7,4H67
	c2,0,3.7-1.8,3.7-4v-0.1v-3.3V28c-0.3-2-2.1-3.5-4.6-4.7l0.6-1l1.5,0.3c0.9,0.1,4.2-1.2,4.2-2.7c0-2.2-1.9-2.7-4.2-2.7
	c-2,0-4,1.1-4.1,2.5l0,0l-0.2,0.4l-4.1-9.5c-1.9-4.4-5.9-7.2-10.3-7.2l-4.2-0.1V3l0,0c-0.1-1.7-1.5-3-3.2-3H30.4
	c-1.8,0-3.2,1.5-3.2,3.2l0,0L23,3.3C18.7,3.5,14.6,6.3,12.7,10.7z M7.7,35.1c-4.8-0.8-4.6-8.3,0.2-8c5.1,0.6,9.1,1.2,9.1,4.8
	C16.8,36.3,10.2,35.4,7.7,35.1z M40.1,44h-7.4c-2.5,0-4.7-2.2-4.7-4.8h16.6C44.5,41.8,42.5,44,40.1,44z M64.5,27.1
	c4.9-0.4,5.1,7.1,0.2,8c-2.5,0.3-9.1,1.2-9.3-3.2C55.4,28.5,59.6,27.5,64.5,27.1z M34.5,6.1h3.4l11.5,0.4c3.3,0,6.4,2.2,7.8,5.5
	l4.1,9.5v0.3c-7.1-1.8-16.1-2-18.7-2h-13c-2.6,0-11.6,0.2-18.7,2v-0.3l0,0l4.3-9.5c1.5-3.4,4.5-5.5,7.8-5.5
	C23,6.5,34.5,6.1,34.5,6.1z"/>
</svg>
